<svg xmlns="http://www.w3.org/2000/svg" version="1.1" xmlns:xlink="http://www.w3.org/1999/xlink" xmlns:svgjs="http://svgjs.dev/svgjs" width="1000" height="623" viewBox="0 0 1000 623"><g transform="matrix(1,0,0,1,-0.6060606060606233,0.2522267206477409)"><svg viewBox="0 0 396 247" data-background-color="#ffffff" preserveAspectRatio="xMidYMid meet" height="623" width="1000" xmlns="http://www.w3.org/2000/svg" xmlns:xlink="http://www.w3.org/1999/xlink"><g id="tight-bounds" transform="matrix(1,0,0,1,0.2400000000000091,-0.09999999999999432)"><svg viewBox="0 0 395.52 247.2" height="247.2" width="395.52"><g><svg></svg></g><g><svg viewBox="0 0 395.52 247.2" height="247.2" width="395.52"><g transform="matrix(1,0,0,1,128.7822109090909,47.215199999999996)"><svg viewBox="0 0 137.95557818181817 152.7696" height="152.7696" width="137.95557818181817"><g><svg viewBox="0 0 137.95557818181817 152.7696" height="152.7696" width="137.95557818181817"><g><svg viewBox="0 0 137.95557818181817 152.7696" height="152.7696" width="137.95557818181817"><g><svg viewBox="0 0 137.95557818181817 152.7696" height="152.7696" width="137.95557818181817"><g id="textblocktransform"><svg viewBox="0 0 137.95557818181817 152.7696" height="152.7696" width="137.95557818181817" id="textblock"><g><svg viewBox="0 0 137.95557818181817 152.7696" height="152.7696" width="137.95557818181817"><g transform="matrix(1,0,0,1,0,0)"><svg width="137.95557818181817" viewBox="1.100000023841858 -33 29.799999237060547 33" height="152.7696" data-palette-color="#3c2617"><path d="M13.9 0L1.1 0 1.1-0.5 2.15-0.85Q3.15-1.2 3.45-1.78 3.75-2.35 3.75-3.4L3.75-3.4 3.75-29.55Q3.75-30.55 3.48-31.13 3.2-31.7 2.25-32.05L2.25-32.05 1.1-32.5 1.1-33 15.4-33Q21.3-33 24.45-30.78 27.6-28.55 27.6-24.6L27.6-24.6Q27.6-22.4 25.95-20.2 24.3-18 20.75-16.8L20.75-16.8 27.7-3Q28.15-2.15 28.73-1.63 29.3-1.1 30.25-0.7L30.25-0.7 30.9-0.45 30.9 0 21.95 0 14.55-15.75 11.15-15.75 11.15-3.4Q11.15-2.45 11.45-1.85 11.75-1.25 12.7-0.95L12.7-0.95 13.9-0.5 13.9 0ZM11.15-32L11.15-16.75 13.55-16.75Q17.15-16.75 18.75-18.68 20.35-20.6 20.35-24.4L20.35-24.4Q20.35-28.25 18.85-30.13 17.35-32 13.8-32L13.8-32 11.15-32Z" opacity="1" transform="matrix(1,0,0,1,0,0)" fill="#3c2617" class="wordmark-text-0" data-fill-palette-color="primary" id="text-0"></path></svg></g></svg></g></svg></g></svg></g></svg></g></svg></g></svg></g><g><path d="M0 123.6c0-68.262 55.338-123.6 123.6-123.6 30.402 0 58.24 10.976 79.768 29.183l-11.147 0c-19.26-14.022-42.974-22.294-68.621-22.295-64.458 0-116.712 52.254-116.712 116.712 0 64.458 52.254 116.712 116.712 116.712 25.647 0 49.361-8.272 68.621-22.295l11.147 0c-21.528 18.206-49.366 29.183-79.768 29.183-68.262 0-123.6-55.338-123.6-123.6z" fill="#eadacf" stroke="transparent" data-fill-palette-color="tertiary"></path></g></svg></g><defs></defs></svg><rect width="395.52" height="247.2" fill="none" stroke="none" visibility="hidden"></rect></g></svg></g></svg>